<?xml version="1.0" encoding="UTF-8"?>
<svg width="345px" height="95px" viewBox="0 0 345 95" version="1.1" xmlns="http://www.w3.org/2000/svg" xmlns:xlink="http://www.w3.org/1999/xlink">
    <!-- Generator: Sketch 39.1 (31720) - http://www.bohemiancoding.com/sketch -->
    <title>Group</title>
    <desc>Created with Sketch.</desc>
    <defs>
        <path d="M128.94,41.76 C128.94,37.7066464 129.539994,33.8533516 130.74,30.2 C131.940006,26.5466484 133.686655,23.3333472 135.98,20.56 C138.273344,17.7866528 141.08665,15.5866748 144.42,13.96 C147.75335,12.3333252 151.579978,11.52 155.9,11.52 C158.833348,11.52 161.63332,11.9466624 164.3,12.8 C166.96668,13.6533376 169.353322,14.9066584 171.46,16.56 C173.566677,18.2133416 175.339992,20.2133216 176.78,22.56 C178.220007,24.9066784 179.179997,27.5733184 179.66,30.56 L176.3,30.56 C174.96666,25.5466416 172.566684,21.6266808 169.1,18.8 C165.633316,15.9733192 161.260026,14.56 155.98,14.56 C152.13998,14.56 148.753348,15.3066592 145.82,16.8 C142.886652,18.2933408 140.433343,20.2933208 138.46,22.8 C136.486656,25.3066792 134.993338,28.1999836 133.98,31.48 C132.966661,34.7600164 132.46,38.1866488 132.46,41.76 C132.46,45.3866848 132.953328,48.8133172 133.94,52.04 C134.926671,55.2666828 136.393323,58.079988 138.34,60.48 C140.286676,62.880012 142.726652,64.7866596 145.66,66.2 C148.593348,67.6133404 152.033313,68.32 155.98,68.32 C159.39335,68.32 162.459986,67.7600056 165.18,66.64 C167.900013,65.5199944 170.206657,63.9466768 172.1,61.92 C173.993342,59.8933232 175.419995,57.4533476 176.38,54.6 C177.340004,51.7466524 177.74,48.5600176 177.58,45.04 L156.54,45.04 L156.54,42 L180.62,42 L180.62,70 L177.58,70 L177.58,57.84 L177.42,57.84 C176.726663,59.9200104 175.686673,61.7999916 174.3,63.48 C172.913326,65.1600084 171.273342,66.5733276 169.38,67.72 C167.486657,68.8666724 165.380011,69.7599968 163.06,70.4 C160.739988,71.0400032 158.326679,71.36 155.82,71.36 C151.499978,71.36 147.67335,70.5866744 144.34,69.04 C141.00665,67.4933256 138.193344,65.38668 135.9,62.72 C133.606655,60.05332 131.873339,56.920018 130.7,53.32 C129.52666,49.719982 128.94,45.8666872 128.94,41.76 L128.94,41.76 Z M221.14,70 L218.1,70 L218.1,61.2 L217.94,61.2 C217.406664,62.7466744 216.646671,64.119994 215.66,65.32 C214.673328,66.520006 213.526673,67.5466624 212.22,68.4 C210.913327,69.2533376 209.486674,69.8933312 207.94,70.32 C206.393325,70.7466688 204.820008,70.96 203.22,70.96 C200.819988,70.96 198.780008,70.6666696 197.1,70.08 C195.419991,69.4933304 194.046672,68.7200048 192.98,67.76 C191.913328,66.7999952 191.073336,65.720006 190.46,64.52 C189.846663,63.319994 189.406668,62.1066728 189.14,60.88 C188.873332,59.6533272 188.713333,58.4666724 188.66,57.32 C188.606666,56.1733276 188.58,55.1733376 188.58,54.32 L188.58,28.88 L191.62,28.88 L191.62,54.88 C191.62,55.946672 191.699999,57.2399924 191.86,58.76 C192.020001,60.2800076 192.486663,61.7466596 193.26,63.16 C194.033337,64.5733404 195.193325,65.7866616 196.74,66.8 C198.286674,67.8133384 200.473319,68.32 203.3,68.32 C205.593345,68.32 207.659991,67.8933376 209.5,67.04 C211.340009,66.1866624 212.899993,65.0000076 214.18,63.48 C215.460006,61.9599924 216.43333,60.1466772 217.1,58.04 C217.76667,55.9333228 218.1,53.6266792 218.1,51.12 L218.1,28.88 L221.14,28.88 L221.14,70 Z M256.22,61.84 L256.06,61.84 C255.579998,63.0666728 254.886671,64.2266612 253.98,65.32 C253.073329,66.4133388 251.966673,67.3866624 250.66,68.24 C249.353327,69.0933376 247.873342,69.7599976 246.22,70.24 C244.566658,70.7200024 242.753343,70.96 240.78,70.96 C236.406645,70.96 233.020012,70.0133428 230.62,68.12 C228.219988,66.2266572 227.02,63.3066864 227.02,59.36 C227.02,56.959988 227.499995,55.0000076 228.46,53.48 C229.420005,51.9599924 230.633326,50.7600044 232.1,49.88 C233.566674,48.9999956 235.193324,48.3733352 236.98,48 C238.766676,47.6266648 240.486658,47.3600008 242.14,47.2 L246.86,46.8 C249.046678,46.6399992 250.76666,46.3866684 252.02,46.04 C253.27334,45.6933316 254.219997,45.2133364 254.86,44.6 C255.500003,43.9866636 255.899999,43.2000048 256.06,42.24 C256.220001,41.2799952 256.3,40.0800072 256.3,38.64 C256.3,37.5199944 256.086669,36.4800048 255.66,35.52 C255.233331,34.5599952 254.566671,33.7066704 253.66,32.96 C252.753329,32.2133296 251.580007,31.6266688 250.14,31.2 C248.699993,30.7733312 246.94001,30.56 244.86,30.56 C241.179982,30.56 238.206678,31.4666576 235.94,33.28 C233.673322,35.0933424 232.433334,37.8399816 232.22,41.52 L229.18,41.52 C229.393334,36.986644 230.846653,33.586678 233.54,31.32 C236.233347,29.053322 240.059975,27.92 245.02,27.92 C249.980025,27.92 253.593322,28.8933236 255.86,30.84 C258.126678,32.7866764 259.26,35.3333176 259.26,38.48 L259.26,62.4 C259.26,62.9866696 259.273333,63.5733304 259.3,64.16 C259.326667,64.7466696 259.419999,65.2799976 259.58,65.76 C259.740001,66.2400024 260.006665,66.6266652 260.38,66.92 C260.753335,67.2133348 261.286663,67.36 261.98,67.36 C262.513336,67.36 263.259995,67.2800008 264.22,67.12 L264.22,69.68 C263.419996,69.8933344 262.593338,70 261.74,70 C260.513327,70 259.540004,69.8400016 258.82,69.52 C258.099996,69.1999984 257.553335,68.773336 257.18,68.24 C256.806665,67.706664 256.553334,67.0800036 256.42,66.36 C256.286666,65.6399964 256.22,64.8533376 256.22,64 L256.22,61.84 Z M256.22,46.64 C255.47333,47.5466712 254.340008,48.1599984 252.82,48.48 C251.299992,48.8000016 249.606676,49.0399992 247.74,49.2 L242.62,49.68 C241.126659,49.8400008 239.633341,50.0666652 238.14,50.36 C236.646659,50.6533348 235.300006,51.1466632 234.1,51.84 C232.899994,52.5333368 231.92667,53.479994 231.18,54.68 C230.43333,55.880006 230.06,57.4399904 230.06,59.36 C230.06,62.4000152 231.01999,64.653326 232.94,66.12 C234.86001,67.586674 237.499983,68.32 240.86,68.32 C244.326684,68.32 247.073323,67.6933396 249.1,66.44 C251.126677,65.1866604 252.673328,63.7466748 253.74,62.12 C254.806672,60.4933252 255.486665,58.9200076 255.78,57.4 C256.073335,55.8799924 256.22,54.853336 256.22,54.32 L256.22,46.64 Z M267.94,12.88 L270.98,12.88 L270.98,50.72 L296.34,28.88 L300.74,28.88 L282.74,44.24 L302.02,70 L297.86,70 L280.34,46.56 L270.98,54.48 L270.98,70 L267.94,70 L267.94,12.88 Z M330.94,61.84 L330.78,61.84 C330.299998,63.0666728 329.606671,64.2266612 328.7,65.32 C327.793329,66.4133388 326.686673,67.3866624 325.38,68.24 C324.073327,69.0933376 322.593342,69.7599976 320.94,70.24 C319.286659,70.7200024 317.473343,70.96 315.5,70.96 C311.126645,70.96 307.740012,70.0133428 305.34,68.12 C302.939988,66.2266572 301.74,63.3066864 301.74,59.36 C301.74,56.959988 302.219995,55.0000076 303.18,53.48 C304.140005,51.9599924 305.353326,50.7600044 306.82,49.88 C308.286674,48.9999956 309.913325,48.3733352 311.7,48 C313.486676,47.6266648 315.206659,47.3600008 316.86,47.2 L321.58,46.8 C323.766678,46.6399992 325.486661,46.3866684 326.74,46.04 C327.99334,45.6933316 328.939997,45.2133364 329.58,44.6 C330.220003,43.9866636 330.619999,43.2000048 330.78,42.24 C330.940001,41.2799952 331.02,40.0800072 331.02,38.64 C331.02,37.5199944 330.806669,36.4800048 330.38,35.52 C329.953331,34.5599952 329.286671,33.7066704 328.38,32.96 C327.473329,32.2133296 326.300007,31.6266688 324.86,31.2 C323.419993,30.7733312 321.660011,30.56 319.58,30.56 C315.899982,30.56 312.926678,31.4666576 310.66,33.28 C308.393322,35.0933424 307.153335,37.8399816 306.94,41.52 L303.9,41.52 C304.113335,36.986644 305.566653,33.586678 308.26,31.32 C310.953347,29.053322 314.779975,27.92 319.74,27.92 C324.700025,27.92 328.313322,28.8933236 330.58,30.84 C332.846678,32.7866764 333.98,35.3333176 333.98,38.48 L333.98,62.4 C333.98,62.9866696 333.993333,63.5733304 334.02,64.16 C334.046667,64.7466696 334.139999,65.2799976 334.3,65.76 C334.460001,66.2400024 334.726665,66.6266652 335.1,66.92 C335.473335,67.2133348 336.006663,67.36 336.7,67.36 C337.233336,67.36 337.979995,67.2800008 338.94,67.12 L338.94,69.68 C338.139996,69.8933344 337.313338,70 336.46,70 C335.233327,70 334.260004,69.8400016 333.54,69.52 C332.819997,69.1999984 332.273335,68.773336 331.9,68.24 C331.526665,67.706664 331.273334,67.0800036 331.14,66.36 C331.006666,65.6399964 330.94,64.8533376 330.94,64 L330.94,61.84 Z M330.94,46.64 C330.19333,47.5466712 329.060008,48.1599984 327.54,48.48 C326.019993,48.8000016 324.326676,49.0399992 322.46,49.2 L317.34,49.68 C315.846659,49.8400008 314.353341,50.0666652 312.86,50.36 C311.366659,50.6533348 310.020006,51.1466632 308.82,51.84 C307.619994,52.5333368 306.646671,53.479994 305.9,54.68 C305.15333,55.880006 304.78,57.4399904 304.78,59.36 C304.78,62.4000152 305.739991,64.653326 307.66,66.12 C309.58001,67.586674 312.219983,68.32 315.58,68.32 C319.046684,68.32 321.793323,67.6933396 323.82,66.44 C325.846677,65.1866604 327.393328,63.7466748 328.46,62.12 C329.526672,60.4933252 330.206665,58.9200076 330.5,57.4 C330.793335,55.8799924 330.94,54.853336 330.94,54.32 L330.94,46.64 Z" id="path-1"></path>
        <filter x="-50%" y="-50%" width="200%" height="200%" filterUnits="objectBoundingBox" id="filter-2">
            <feOffset dx="0" dy="0" in="SourceAlpha" result="shadowOffsetOuter1"></feOffset>
            <feGaussianBlur stdDeviation="0.5" in="shadowOffsetOuter1" result="shadowBlurOuter1"></feGaussianBlur>
            <feColorMatrix values="0 0 0 0 0   0 0 0 0 0   0 0 0 0 0  0 0 0 0.5 0" type="matrix" in="shadowBlurOuter1"></feColorMatrix>
        </filter>
        <linearGradient x1="50%" y1="0%" x2="50%" y2="100%" id="linearGradient-3">
            <stop stop-color="#F8C02E" offset="0%"></stop>
            <stop stop-color="#000000" stop-opacity="0.5" offset="100%"></stop>
        </linearGradient>
        <path d="M42.5,85 C65.9721019,85 85,65.9721019 85,42.5 C85,19.0278981 65.9721019,0 42.5,0 C19.0278981,0 0,19.0278981 0,42.5 C0,65.9721019 19.0278981,85 42.5,85 Z" id="path-4"></path>
        <filter x="-50%" y="-50%" width="200%" height="200%" filterUnits="objectBoundingBox" id="filter-5">
            <feMorphology radius="1" operator="dilate" in="SourceAlpha" result="shadowSpreadOuter1"></feMorphology>
            <feOffset dx="0" dy="0" in="shadowSpreadOuter1" result="shadowOffsetOuter1"></feOffset>
            <feGaussianBlur stdDeviation="1.5" in="shadowOffsetOuter1" result="shadowBlurOuter1"></feGaussianBlur>
            <feColorMatrix values="0 0 0 0 0   0 0 0 0 0   0 0 0 0 0  0 0 0 0.5 0" type="matrix" in="shadowBlurOuter1"></feColorMatrix>
        </filter>
    </defs>
    <g id="Page-1" stroke="none" stroke-width="1" fill="none" fill-rule="evenodd">
        <g id="Artboard" transform="translate(-550.000000, -109.000000)">
            <g id="Group" transform="translate(555.000000, 114.000000)">
                <g id="Guaka">
                    <use fill="black" fill-opacity="1" filter="url(#filter-2)" xlink:href="#path-1"></use>
                    <use fill="#595252" fill-rule="evenodd" xlink:href="#path-1"></use>
                </g>
                <g id="Group-3">
                    <g id="Oval">
                        <use fill="black" fill-opacity="1" filter="url(#filter-5)" xlink:href="#path-4"></use>
                        <use fill="#57AADB" fill-rule="evenodd" xlink:href="#path-4"></use>
                        <use fill="url(#linearGradient-3)" fill-rule="evenodd" xlink:href="#path-4"></use>
                    </g>
                    <path d="M22.1490608,50.8293209 C22.676252,51.7992953 24.1582595,53.8610516 24.1582595,53.8610516 C24.1868235,53.9009663 24.1617577,53.9103586 24.1200316,53.8903129 C24.1200316,53.8903129 19.9480943,51.924571 18.479557,50.2621396 C16.7059719,48.2543844 14.6875479,43.3050756 14.6875479,43.3050756 C14.5823985,43.0548914 14.4745269,42.6325094 14.4467954,42.3585228 C14.4467954,42.3585228 14.3574695,41.5159984 14.3059537,40.8244582 C14.1840066,39.1874576 14.0081114,36.3644205 14.0081114,36.3644205 C13.9908018,36.0894015 14.0021257,35.6442161 14.0332311,35.3715881 L14.9247497,27.5577248 L14.9866776,23.6229315 C14.9911094,23.3413447 15.0941689,22.9015938 15.2062129,22.6633735 L16.6647351,19.5623626 L19.6118654,15.6549661 C19.6465865,15.6089318 19.6966133,15.6098085 19.7217253,15.6536458 L20.183936,16.4605124 C20.183936,16.4605124 24.407515,13.3875484 26.7662295,12.4866213 C28.7943979,11.7119485 33.3445846,11.4337128 33.3445846,11.4337128 L33.6844206,11.8019078 C33.6844206,11.8019078 35.7262525,11.1668091 36.8203022,11.0634696 C38.3321869,10.920663 41.5022237,11.0634696 41.5022237,11.0634696 L38.9339963,12.3694039 C38.9339963,12.3694039 41.4100876,12.0008068 42.6680957,11.9068363 C43.474259,11.8466176 45.1265106,11.9068363 45.1265106,11.9068363 L43.7945804,13.2838258 C43.7945804,13.2838258 47.3392601,13.993768 49.1462494,14.6047277 C50.1799969,14.9542471 52.3167908,16.1652632 52.3167908,16.1652632 L48.4435744,16.5049416 C48.4435744,16.5049416 51.0430543,17.3650979 52.3167918,17.7072078 C53.2941854,17.9697234 55.0002831,18.2821134 55.0002831,18.2821134 C55.108909,18.3023848 55.1129622,18.3404854 55.0059135,18.3680961 L52.2851232,19.0698603 C52.2851232,19.0698603 55.239836,21.2050636 56.491086,22.6155291 C57.149083,23.3572531 58.0128641,25.5264289 58.0128641,25.5264289 C58.0128641,25.5264289 61.8055711,31.9703185 64.0122233,34.9239877 C65.2284037,36.5518811 68.281362,39.2711164 68.281362,39.2711164 C68.281362,39.2711164 72.6471442,41.9512659 74.7672349,43.7145077 C75.4939204,44.3188792 76.8216907,46.3739563 76.8216907,46.3739563 L40.5478167,77 C40.5478167,77 38.8134967,72.1931713 38.2268942,70.4369921 C37.2988066,67.6584695 37.5778884,57.8663773 37.5778884,57.8663773 L37.236453,57.1007662 L36.8576623,58.0353494 C36.8576623,58.0353494 36.0988975,57.0095603 35.8176455,56.3564498 C35.4223109,55.4384224 34.8279025,53.3219357 34.8279025,53.3219357 C34.8279025,53.3219357 34.3342408,54.3256314 34.3255241,54.8048915 C34.3151558,55.3749574 34.7706475,56.4699138 34.7706475,56.4699138 C34.7706475,56.4699138 33.7757486,55.592514 33.5132187,54.9330334 C33.1573771,54.0391519 32.9155329,51.8098275 32.9155329,51.8098275 C32.9155329,51.8098275 32.6563518,52.6669811 32.5909418,53.0881141 C32.5183056,53.5557719 32.5013942,54.4762002 32.5013942,54.4762002 C32.5013942,54.4762002 31.5794066,52.5172245 31.3756694,51.4754605 C31.2041652,50.5985127 31.37567,48.7200646 31.37567,48.7200646 L30.5275802,50.6300776 C30.5275802,50.6300776 30.1613969,49.1372573 30.1404973,48.347993 C30.2336604,47.4528913 30.4248528,46.7506145 30.4248528,46.7506145 L29.3956592,47.9479948 L29.2917099,45.9164894 C29.2917099,45.9164894 21.5964549,49.8125861 22.1490608,50.8293209 Z" id="Path" fill="#FFFFFF"></path>
                    <circle id="Oval-2" fill="#6E7049" cx="30" cy="26" r="2"></circle>
                </g>
            </g>
        </g>
    </g>
</svg>